<svg xmlns="http://www.w3.org/2000/svg" viewBox="0 0 18.128 17.483">
  <defs>
    <style>
      .cls-1 {
        fill: #fff;
      }
    </style>
  </defs>
  <g id="ネコの足跡の無料アイコン素材" transform="translate(0 -34.666)">
    <path id="パス_1" data-name="パス 1" class="cls-1" d="M3.181,145.974c.686-.4,1.011-2.061.342-3.475S1.616,140.35.758,140.856s-1.011,2.061-.342,3.475S2.5,146.379,3.181,145.974Z" transform="translate(0 -101.843)"/>
    <path id="パス_2" data-name="パス 2" class="cls-1" d="M405.263,140.856c-.858-.506-2.1.23-2.765,1.644s-.345,3.07.342,3.475,2.1-.23,2.765-1.644S406.121,141.362,405.263,140.856Z" transform="translate(-387.893 -101.843)"/>
    <path id="パス_3" data-name="パス 3" class="cls-1" d="M277.765,40.707a1.447,1.447,0,0,0,1.16-.407l0,0c.049-.041.1-.085.145-.132l.02-.019q.068-.068.134-.143l.021-.024c.045-.052.089-.106.131-.163l.012-.016a3.68,3.68,0,0,0,.681-1.7,4.516,4.516,0,0,0-.161-2.354l0-.005c-.026-.059-.056-.116-.087-.171l-.02-.037c-.028-.047-.059-.092-.091-.135-.012-.016-.023-.032-.035-.048-.032-.041-.067-.079-.1-.117l-.04-.041a1.6,1.6,0,0,0-.125-.109l-.031-.023a1.96,1.96,0,0,0-.8-.35,1.574,1.574,0,0,0-1.247.19l-.044.03c-.034.025-.067.051-.1.079l-.051.046c-.031.03-.062.06-.091.093l-.037.044a4.261,4.261,0,0,0-.74,2.122C276.044,38.972,276.924,40.533,277.765,40.707Z" transform="translate(-266.453)"/>
    <path id="パス_4" data-name="パス 4" class="cls-1" d="M125.512,35.538l-.021.037c-.031.055-.061.112-.087.171l0,.006a4.516,4.516,0,0,0-.161,2.353,3.679,3.679,0,0,0,.681,1.7l.012.015q.064.086.132.164l.02.023c.044.05.089.1.135.144l.019.018c.048.047.1.092.146.133l0,0a1.448,1.448,0,0,0,1.161.408c.84-.174,1.721-1.735,1.5-3.39a4.26,4.26,0,0,0-.741-2.122l-.037-.044c-.029-.033-.06-.064-.091-.093l-.05-.046c-.032-.028-.065-.055-.1-.079l-.044-.03a1.573,1.573,0,0,0-1.247-.19,1.958,1.958,0,0,0-.8.35l-.031.023a1.636,1.636,0,0,0-.125.109l-.04.041c-.036.037-.07.076-.1.117-.012.015-.024.032-.035.048C125.571,35.447,125.54,35.491,125.512,35.538Z" transform="translate(-120.734 -0.002)"/>
    <path id="パス_5" data-name="パス 5" class="cls-1" d="M74.992,226.246a1.682,1.682,0,0,1-1.062-1.079,3.484,3.484,0,0,0-6.531,0,1.682,1.682,0,0,1-1.062,1.079,3.417,3.417,0,0,0,.993,6.7,3.479,3.479,0,0,0,2.34-.9,1.458,1.458,0,0,1,1.989,0,3.478,3.478,0,0,0,5.808-2.525A3.429,3.429,0,0,0,74.992,226.246Z" transform="translate(-61.6 -180.798)"/>
  </g>
</svg>
